<svg xmlns="http://www.w3.org/2000/svg" width="1440" height="950" viewBox="0 0 1440 950" role="img" aria-labelledby="title desc">
  <title id="title">Pageden multi-agent planning workflow</title>
  <desc id="desc">A Pageden workspace showing an agent-drafted plan, anchored review comments, revision history, and canonical status.</desc>
  <defs>
    <linearGradient id="bg" x1="0" y1="0" x2="1" y2="1">
      <stop offset="0" stop-color="#f8fafc"/>
      <stop offset="1" stop-color="#fff7f0"/>
    </linearGradient>
    <filter id="shadow" x="-20%" y="-20%" width="140%" height="140%">
      <feDropShadow dx="0" dy="18" stdDeviation="22" flood-color="#0a0f1e" flood-opacity=".14"/>
    </filter>
  </defs>

  <rect width="1440" height="950" fill="url(#bg)"/>

  <g filter="url(#shadow)">
    <rect x="78" y="70" width="1284" height="810" rx="26" fill="#ffffff"/>
    <rect x="78" y="70" width="1284" height="64" rx="26" fill="#f3f4f6"/>
    <rect x="78" y="112" width="1284" height="22" fill="#f3f4f6"/>
    <circle cx="116" cy="102" r="9" fill="#ef4444"/>
    <circle cx="146" cy="102" r="9" fill="#f59e0b"/>
    <circle cx="176" cy="102" r="9" fill="#22c55e"/>
    <rect x="410" y="88" width="620" height="28" rx="8" fill="#ffffff" stroke="#e5e7eb"/>
    <text x="720" y="107" text-anchor="middle" font-family="-apple-system,BlinkMacSystemFont,'Segoe UI',sans-serif" font-size="14" fill="#6b7280">go.pageden.app/workspace/strategy/agent-plan</text>

    <rect x="78" y="134" width="260" height="746" fill="#fafafa"/>
    <line x1="338" y1="134" x2="338" y2="880" stroke="#e5e7eb"/>
    <text x="112" y="184" font-family="-apple-system,BlinkMacSystemFont,'Segoe UI',sans-serif" font-size="13" font-weight="700" letter-spacing="1.4" fill="#9ca3af">WORKSPACE</text>
    <rect x="104" y="214" width="206" height="34" rx="8" fill="#fff7f0"/>
    <text x="126" y="236" font-family="-apple-system,BlinkMacSystemFont,'Segoe UI',sans-serif" font-size="15" font-weight="700" fill="#f4510b">Strategy</text>
    <text x="126" y="284" font-family="-apple-system,BlinkMacSystemFont,'Segoe UI',sans-serif" font-size="14" fill="#374151">Launch plan</text>
    <text x="126" y="326" font-family="-apple-system,BlinkMacSystemFont,'Segoe UI',sans-serif" font-size="14" fill="#374151">Positioning</text>
    <text x="126" y="368" font-family="-apple-system,BlinkMacSystemFont,'Segoe UI',sans-serif" font-size="14" fill="#374151">Customer docs</text>

    <text x="112" y="452" font-family="-apple-system,BlinkMacSystemFont,'Segoe UI',sans-serif" font-size="13" font-weight="700" letter-spacing="1.4" fill="#9ca3af">WORKFLOW</text>
    <rect x="104" y="480" width="206" height="44" rx="10" fill="#ffffff" stroke="#e5e7eb"/>
    <circle cx="128" cy="502" r="8" fill="#f4510b"/>
    <text x="146" y="507" font-family="-apple-system,BlinkMacSystemFont,'Segoe UI',sans-serif" font-size="14" font-weight="600" fill="#0a0f1e">Agent draft</text>
    <rect x="104" y="536" width="206" height="44" rx="10" fill="#ffffff" stroke="#e5e7eb"/>
    <circle cx="128" cy="558" r="8" fill="#f59e0b"/>
    <text x="146" y="563" font-family="-apple-system,BlinkMacSystemFont,'Segoe UI',sans-serif" font-size="14" font-weight="600" fill="#0a0f1e">Human review</text>
    <rect x="104" y="592" width="206" height="44" rx="10" fill="#ffffff" stroke="#e5e7eb"/>
    <circle cx="128" cy="614" r="8" fill="#22c55e"/>
    <text x="146" y="619" font-family="-apple-system,BlinkMacSystemFont,'Segoe UI',sans-serif" font-size="14" font-weight="600" fill="#0a0f1e">Canonical</text>

    <rect x="338" y="134" width="668" height="746" fill="#ffffff"/>
    <text x="386" y="196" font-family="-apple-system,BlinkMacSystemFont,'Segoe UI',sans-serif" font-size="14" font-weight="700" letter-spacing="1.4" fill="#9ca3af">STRATEGY / MULTI-AGENT PLAN</text>
    <text x="386" y="246" font-family="-apple-system,BlinkMacSystemFont,'Segoe UI',sans-serif" font-size="34" font-weight="800" fill="#0a0f1e">Launch Page Rewrite Plan</text>
    <rect x="386" y="270" width="132" height="28" rx="14" fill="#dcfce7" stroke="#86efac"/>
    <circle cx="406" cy="284" r="5" fill="#22c55e"/>
    <text x="420" y="289" font-family="-apple-system,BlinkMacSystemFont,'Segoe UI',sans-serif" font-size="13" font-weight="700" fill="#166534">Canonical</text>
    <rect x="530" y="270" width="170" height="28" rx="14" fill="#fff7f0" stroke="#fed7aa"/>
    <text x="552" y="289" font-family="-apple-system,BlinkMacSystemFont,'Segoe UI',sans-serif" font-size="13" font-weight="700" fill="#c2410c">Agent drafted</text>

    <text x="386" y="348" font-family="-apple-system,BlinkMacSystemFont,'Segoe UI',sans-serif" font-size="20" font-weight="800" fill="#0a0f1e">1. Goal</text>
    <rect x="386" y="368" width="500" height="14" rx="7" fill="#e5e7eb"/>
    <rect x="386" y="396" width="548" height="14" rx="7" fill="#e5e7eb"/>
    <rect x="386" y="424" width="420" height="14" rx="7" fill="#e5e7eb"/>

    <rect x="372" y="474" width="590" height="122" rx="16" fill="#fff7f0" stroke="#fed7aa"/>
    <text x="402" y="514" font-family="-apple-system,BlinkMacSystemFont,'Segoe UI',sans-serif" font-size="18" font-weight="800" fill="#0a0f1e">Agent draft</text>
    <text x="402" y="548" font-family="-apple-system,BlinkMacSystemFont,'Segoe UI',sans-serif" font-size="16" fill="#374151">Rewrite the homepage around draft, review, revise, and canonical promotion.</text>
    <text x="402" y="576" font-family="-apple-system,BlinkMacSystemFont,'Segoe UI',sans-serif" font-size="14" fill="#9a3412">Claude / Codex context attached</text>

    <text x="386" y="660" font-family="-apple-system,BlinkMacSystemFont,'Segoe UI',sans-serif" font-size="20" font-weight="800" fill="#0a0f1e">2. Decisions</text>
    <rect x="386" y="682" width="520" height="14" rx="7" fill="#e5e7eb"/>
    <rect x="386" y="710" width="470" height="14" rx="7" fill="#e5e7eb"/>
    <rect x="386" y="738" width="552" height="14" rx="7" fill="#e5e7eb"/>

    <rect x="1006" y="134" width="356" height="746" fill="#fbfbfb"/>
    <line x1="1006" y1="134" x2="1006" y2="880" stroke="#e5e7eb"/>

    <text x="1044" y="190" font-family="-apple-system,BlinkMacSystemFont,'Segoe UI',sans-serif" font-size="13" font-weight="700" letter-spacing="1.4" fill="#9ca3af">REVIEW COMMENTS</text>
    <rect x="1040" y="218" width="278" height="128" rx="16" fill="#ffffff" stroke="#e5e7eb"/>
    <text x="1064" y="252" font-family="-apple-system,BlinkMacSystemFont,'Segoe UI',sans-serif" font-size="15" font-weight="800" fill="#0a0f1e">Claude reviewer</text>
    <text x="1064" y="284" font-family="-apple-system,BlinkMacSystemFont,'Segoe UI',sans-serif" font-size="14" fill="#374151">Lock the hero to canonical.</text>
    <text x="1064" y="312" font-family="-apple-system,BlinkMacSystemFont,'Segoe UI',sans-serif" font-size="14" fill="#374151">Keep human in the loop.</text>
    <rect x="1064" y="326" width="74" height="20" rx="10" fill="#dcfce7"/>
    <text x="1101" y="341" text-anchor="middle" font-family="-apple-system,BlinkMacSystemFont,'Segoe UI',sans-serif" font-size="11" font-weight="700" fill="#166534">Resolved</text>

    <rect x="1040" y="372" width="278" height="128" rx="16" fill="#ffffff" stroke="#e5e7eb"/>
    <text x="1064" y="406" font-family="-apple-system,BlinkMacSystemFont,'Segoe UI',sans-serif" font-size="15" font-weight="800" fill="#0a0f1e">Product lead</text>
    <text x="1064" y="438" font-family="-apple-system,BlinkMacSystemFont,'Segoe UI',sans-serif" font-size="14" fill="#374151">Move manuals lower.</text>
    <text x="1064" y="466" font-family="-apple-system,BlinkMacSystemFont,'Segoe UI',sans-serif" font-size="14" fill="#374151">Preserve SEO terms.</text>
    <rect x="1064" y="480" width="74" height="20" rx="10" fill="#dcfce7"/>
    <text x="1101" y="495" text-anchor="middle" font-family="-apple-system,BlinkMacSystemFont,'Segoe UI',sans-serif" font-size="11" font-weight="700" fill="#166534">Resolved</text>

    <text x="1044" y="566" font-family="-apple-system,BlinkMacSystemFont,'Segoe UI',sans-serif" font-size="13" font-weight="700" letter-spacing="1.4" fill="#9ca3af">HISTORY</text>
    <rect x="1040" y="596" width="278" height="172" rx="16" fill="#ffffff" stroke="#e5e7eb"/>
    <circle cx="1066" cy="630" r="7" fill="#f4510b"/>
    <text x="1086" y="635" font-family="-apple-system,BlinkMacSystemFont,'Segoe UI',sans-serif" font-size="14" font-weight="700" fill="#0a0f1e">Agent drafted v1</text>
    <circle cx="1066" cy="676" r="7" fill="#f59e0b"/>
    <text x="1086" y="681" font-family="-apple-system,BlinkMacSystemFont,'Segoe UI',sans-serif" font-size="14" font-weight="700" fill="#0a0f1e">Reviewer comments</text>
    <circle cx="1066" cy="722" r="7" fill="#22c55e"/>
    <text x="1086" y="727" font-family="-apple-system,BlinkMacSystemFont,'Segoe UI',sans-serif" font-size="14" font-weight="700" fill="#0a0f1e">Promoted canonical</text>

    <rect x="1040" y="798" width="278" height="44" rx="12" fill="#0a0f1e"/>
    <text x="1179" y="826" text-anchor="middle" font-family="-apple-system,BlinkMacSystemFont,'Segoe UI',sans-serif" font-size="15" font-weight="800" fill="#ffffff">Promote to canonical</text>
  </g>
</svg>
